<?xml version="1.0" encoding="UTF-8"?>
<svg version="1.1" xmlns="http://www.w3.org/2000/svg" width="318" height="319">
<path d="M0 0 C0.89432739 -0.00630432 1.78865479 -0.01260864 2.71008301 -0.019104 C4.16166809 -0.01303131 4.16166809 -0.01303131 5.64257812 -0.00683594 C6.6338269 -0.00874939 7.62507568 -0.01066284 8.6463623 -0.01263428 C10.7445501 -0.01399679 12.84274631 -0.01029576 14.94091797 -0.00195312 C18.16067358 0.00874535 21.37987121 -0.0018463 24.59960938 -0.01464844 C26.63476686 -0.01332685 28.669924 -0.01076449 30.70507812 -0.00683594 C31.67280151 -0.0108844 32.6405249 -0.01493286 33.63757324 -0.019104 C34.53190063 -0.01279968 35.42622803 -0.00649536 36.34765625 0 C37.13660278 0.00159119 37.92554932 0.00318237 38.73840332 0.00482178 C40.67382812 0.25878906 40.67382812 0.25878906 42.67382812 2.25878906 C43.08105469 4.12792969 43.08105469 4.12792969 43.31445312 6.41503906 C43.41193848 7.26356445 43.50942383 8.11208984 43.60986328 8.98632812 C43.71347168 9.90124023 43.81708008 10.81615234 43.92382812 11.75878906 C47.56362029 39.68453391 61.34581224 66.26991459 83.81835938 83.74707031 C102.0084295 97.42469373 122.18733208 105.66906384 144.98632812 107.82128906 C148.67382813 108.25878906 148.67382813 108.25878906 150.67382812 110.25878906 C150.92106628 112.20094299 150.92106628 112.20094299 150.91674805 114.60083008 C150.91982468 115.49838516 150.92290131 116.39594025 150.92607117 117.32069397 C150.91529289 118.77698463 150.91529289 118.77698463 150.90429688 120.26269531 C150.90383865 121.25631577 150.90338043 122.24993622 150.90290833 123.27366638 C150.89988422 125.3760599 150.89199322 127.47845115 150.87963867 129.58081055 C150.86138377 132.81144076 150.85912893 136.04178455 150.859375 139.27246094 C150.85445993 141.31087489 150.84863165 143.34928689 150.84179688 145.38769531 C150.84068405 146.36057999 150.83957123 147.33346466 150.83842468 148.33583069 C150.83204483 149.23023361 150.82566498 150.12463654 150.8190918 151.04614258 C150.81528 151.83730972 150.8114682 152.62847687 150.80754089 153.44361877 C150.67382812 155.25878906 150.67382812 155.25878906 149.67382812 156.25878906 C115.32753906 159.0192327 78.6262857 142.72398301 52.67382812 121.25878906 C49.25255656 118.34547922 45.94063556 115.34381016 42.67382812 112.25878906 C41.87589844 111.5253125 41.07796875 110.79183594 40.25585938 110.03613281 C11.23185407 82.39642029 -2.99266298 43.86949983 -6.40820312 4.66503906 C-6.25602198 0.20105885 -3.84300198 0.00775076 0 0 Z " fill="#D5CEE5" transform="translate(6.326171875,161.7412109375)"/>
<path d="M0 0 C33.94853846 0.36940738 68.28719293 14.98738433 93.5625 37.25 C94.43648438 38.01441406 95.31046875 38.77882812 96.2109375 39.56640625 C98.68943283 41.76579174 101.13314563 43.99656439 103.5625 46.25 C104.16578125 46.79914062 104.7690625 47.34828125 105.390625 47.9140625 C131.41736539 72.60297979 148.17524473 111.80645336 149.69628906 147.37890625 C149.74961806 152.71180556 149.74961806 152.71180556 149.5625 155.25 C147.98949672 156.82300328 146.42565955 156.37725504 144.2421875 156.37939453 C143.32453613 156.38254669 142.40688477 156.38569885 141.46142578 156.38894653 C140.46353027 156.3869223 139.46563477 156.38489807 138.4375 156.3828125 C137.42026855 156.38376923 136.40303711 156.38472595 135.35498047 156.38571167 C133.19954364 156.38639361 131.04410478 156.38453835 128.88867188 156.38037109 C125.57677629 156.37502305 122.26501633 156.38031563 118.953125 156.38671875 C116.86458303 156.38605797 114.77604115 156.38477681 112.6875 156.3828125 C111.19065674 156.38584885 111.19065674 156.38584885 109.66357422 156.38894653 C108.74592285 156.38579437 107.82827148 156.38264221 106.8828125 156.37939453 C106.07086426 156.37859894 105.25891602 156.37780334 104.42236328 156.37698364 C102.5625 156.25 102.5625 156.25 101.5625 155.25 C101.28489716 153.08896866 101.0124484 150.92715824 100.76513672 148.76245117 C97.34524363 119.92780861 84.66989696 92.91307433 62.03125 74.15234375 C43.05541973 59.28284234 22.420715 51.48890168 -1.484375 48.7578125 C-5.4375 48.25 -5.4375 48.25 -6.4375 47.25 C-6.53563987 45.81259647 -6.5654828 44.37043673 -6.56689453 42.9296875 C-6.57004669 42.01203613 -6.57319885 41.09438477 -6.57644653 40.14892578 C-6.5744223 39.15103027 -6.57239807 38.15313477 -6.5703125 37.125 C-6.57126923 36.10776855 -6.57222595 35.09053711 -6.57321167 34.04248047 C-6.57389361 31.88704364 -6.57203835 29.73160478 -6.56787109 27.57617188 C-6.56252305 24.26427629 -6.56781563 20.95251633 -6.57421875 17.640625 C-6.57355797 15.55208303 -6.57227681 13.46354115 -6.5703125 11.375 C-6.57233673 10.37710449 -6.57436096 9.37920898 -6.57644653 8.35107422 C-6.57329437 7.43342285 -6.57014221 6.51577148 -6.56689453 5.5703125 C-6.56609894 4.75836426 -6.56530334 3.94641602 -6.56448364 3.10986328 C-6.29390072 -0.85322388 -3.34150202 0.05005996 0 0 Z " fill="#D4CDE4" transform="translate(167.4375,0.75)"/>
<path d="M0 0 C3.40858568 0.48375124 5.61160902 1.95464577 8.375 3.9375 C14.72088582 8.24732799 20.34351729 9.99387035 28 9 C32.94582433 7.63842634 37.36823982 6.03848204 40.875 2.1875 C41.57625 1.465625 42.2775 0.74375 43 0 C45.1328125 0.36328125 45.1328125 0.36328125 47 1 C48.15842759 22.49526741 42.03819834 44.64385841 33 64 C32.51144531 65.08023438 32.02289063 66.16046875 31.51953125 67.2734375 C26.55028567 77.77849347 20.31395255 87.97520877 12.60546875 96.71484375 C10.7642482 98.81629675 10.7642482 98.81629675 11.171875 101.046875 C11.58179688 102.01367188 11.58179688 102.01367188 12 103 C13.74600578 108.6638724 14.54059168 112.71985704 12.0625 118.2734375 C10.06584025 121.51800959 7.34418262 123.32790869 4 125 C1.828125 125.203125 1.828125 125.203125 -0.75 125.25 C-1.59046875 125.27578125 -2.4309375 125.3015625 -3.296875 125.328125 C-6.65683132 124.92026903 -9.06111579 123.63271345 -12 122 C-13.2375 122.92619141 -13.2375 122.92619141 -14.5 123.87109375 C-41.41205554 143.72826433 -74.05508647 157.47349303 -108 156 C-108.33 155.01 -108.66 154.02 -109 153 C-107.63671875 150.9140625 -107.63671875 150.9140625 -105.6875 148.625 C-100.41021654 142.39502237 -99.49946099 137.44061386 -99.609375 129.37109375 C-100.2493164 123.84839947 -102.38630209 118.20659823 -106.73046875 114.5390625 C-107.35888672 113.77722656 -107.35888672 113.77722656 -108 113 C-107.6875 110.3125 -107.6875 110.3125 -107 108 C-105.741875 107.84144531 -104.48375 107.68289063 -103.1875 107.51953125 C-72.54453895 103.44082671 -44.29879021 90.68441011 -24.8125 65.8125 C-10.87755779 47.25846984 -2.81848776 25.95246631 -1.2109375 2.7578125 C-1 1 -1 1 0 0 Z " fill="#E2E2E3" transform="translate(270,162)"/>
<path d="M0 0 C1.134375 0.00902344 2.26875 0.01804688 3.4375 0.02734375 C4.283125 0.03894531 5.12875 0.05054687 6 0.0625 C6.671875 1.828125 6.671875 1.828125 7 4.0625 C5.890625 5.921875 5.890625 5.921875 4.25 7.8125 C-0.4795967 13.74099447 -2.81012195 19.36634148 -2 27.0625 C-0.7070736 33.10693094 1.38353808 37.1098359 5.890625 41.359375 C7 43.0625 7 43.0625 6.671875 45.765625 C6.45015625 46.52359375 6.2284375 47.2815625 6 48.0625 C4.741875 48.22105469 3.48375 48.37960938 2.1875 48.54296875 C-28.53182696 52.63183791 -56.73828176 65.36466207 -76.25 90.3125 C-89.82209341 108.4277248 -97.59129677 128.89319391 -99.5 151.4375 C-99.665 152.63375 -99.83 153.83 -100 155.0625 C-100.99 155.7225 -101.98 156.3825 -103 157.0625 C-103.556875 156.59199219 -104.11375 156.12148437 -104.6875 155.63671875 C-111.59247781 150.00309665 -117.58422672 146.36504825 -126.703125 146.7109375 C-132.32600996 147.57158316 -137.07659188 150.07681219 -141.3125 153.8125 C-144 156.0625 -144 156.0625 -148 156.0625 C-149.77940441 124.32978794 -137.6617185 92.93215407 -120 67.0625 C-117.68859704 64.30101844 -117.68859704 64.30101844 -118.3125 61.5 C-118.91239838 59.08135389 -118.91239838 59.08135389 -120 57.0625 C-120.44326044 51.83202683 -120.28815025 48.07370727 -117.39453125 43.60546875 C-113.82233226 39.6530357 -109.49647607 38.21468401 -104.3125 37.6875 C-101.14668971 38.04589362 -98.90366542 38.82584522 -96 40.0625 C-94.94425781 39.13630859 -94.94425781 39.13630859 -93.8671875 38.19140625 C-86.32129176 31.71927374 -78.55330726 26.12701905 -70 21.0625 C-69.41379883 20.71445312 -68.82759766 20.36640625 -68.22363281 20.0078125 C-48.13182191 8.26828103 -23.44399789 -0.24420831 0 0 Z " fill="#E2E2E3" transform="translate(149,0.9375)"/>
<path d="M0 0 C2.5434653 2.21738 3.85302556 3.70132423 4.23828125 7.10546875 C4.24872242 9.07188951 4.1330132 11.03805527 4 13 C4.64066406 12.95359375 5.28132813 12.9071875 5.94140625 12.859375 C12.28709453 12.59457728 15.94017425 13.05333591 21 17 C25.42874468 23.02333885 25.56922137 28.01500064 25.50170898 35.34790039 C25.50981346 37.03209831 25.50981346 37.03209831 25.51808167 38.75032043 C25.53055589 42.44970316 25.51408654 46.14830576 25.49609375 49.84765625 C25.49624876 52.4240269 25.497738 55.00039779 25.50050354 57.57676697 C25.50188692 62.97096969 25.48977468 68.36488635 25.46655273 73.7590332 C25.43993262 79.98542773 25.43820204 86.21144958 25.4499411 92.43788153 C25.46073849 98.44204176 25.4544152 104.446032 25.44038582 110.45019341 C25.43587152 112.99907477 25.43553432 115.54796709 25.43945122 118.09684944 C25.44236283 121.65862595 25.42585811 125.21979447 25.40405273 128.78149414 C25.41080521 130.35966919 25.41080521 130.35966919 25.41769409 131.96972656 C25.35462873 138.17254273 24.80310829 142.77565959 20.5703125 147.64453125 C15.82785114 151.47695273 12.03250879 152.11921966 6.07998657 152.14044189 C5.11560165 152.14615204 4.15121674 152.15186218 3.15760803 152.15774536 C1.58806618 152.15942215 1.58806618 152.15942215 -0.01318359 152.16113281 C-1.12433029 152.16609772 -2.23547699 152.17106262 -3.3802948 152.17617798 C-7.05301535 152.19077318 -10.72569273 152.19759664 -14.3984375 152.203125 C-16.95285035 152.20887788 -19.50726319 152.21463559 -22.06167603 152.22039795 C-26.73248955 152.2295585 -31.40329015 152.23586237 -36.07411039 152.2388947 C-42.93665838 152.24337529 -49.79900717 152.26092945 -56.66149461 152.2898953 C-62.61753607 152.31415766 -68.57352816 152.32184093 -74.52962112 152.32357025 C-77.05815339 152.32659597 -79.58668482 152.33462172 -82.11518478 152.34775543 C-85.65295238 152.36482242 -89.19023521 152.36293395 -92.72802734 152.35644531 C-93.77034012 152.3656601 -94.81265289 152.37487488 -95.8865509 152.3843689 C-102.32065126 152.34742912 -107.70880279 151.90009081 -112.7421875 147.46484375 C-115.74131371 143.42119428 -117.12302687 141.35288944 -117.14044189 136.35809326 C-117.14615204 135.37955887 -117.15186218 134.40102448 -117.15774536 133.39283752 C-117.15886322 132.31541794 -117.15998108 131.23799835 -117.16113281 130.12792969 C-117.16609772 128.99610764 -117.17106262 127.86428558 -117.17617798 126.69816589 C-117.19082895 122.93939616 -117.19760691 119.18066864 -117.203125 115.421875 C-117.20887455 112.8159383 -117.2146323 110.21000161 -117.22039795 107.60406494 C-117.22997339 102.83296617 -117.23586748 98.06187654 -117.2388947 93.29076934 C-117.24337187 86.27310163 -117.26090224 79.25562905 -117.2898953 72.23802066 C-117.31414266 66.15756272 -117.32184036 60.07718513 -117.32357025 53.99668121 C-117.3265993 51.41150094 -117.33463627 48.82632155 -117.34775543 46.24117279 C-117.36480039 42.62384761 -117.36293899 39.00699743 -117.35644531 35.38964844 C-117.3656601 34.32032578 -117.37487488 33.25100311 -117.3843689 32.14927673 C-117.34665434 25.44621387 -116.56748358 20.98159383 -112.0625 15.75 C-107.35614749 13.06065571 -102.32827115 12.64585105 -97 12 C-96.91363281 11.39671875 -96.82726562 10.7934375 -96.73828125 10.171875 C-96.04641138 6.23646837 -95.47702598 3.59266864 -92.9375 0.4375 C-88.88646329 -1.54492222 -85.42443716 -1.95381888 -81 -1 C-78.24430553 1.18159145 -76.56411253 2.87177494 -75 6 C-75 8.31 -75 10.62 -75 13 C-55.86 13 -36.72 13 -17 13 C-17 10.69 -17 8.38 -17 6 C-15.16750008 2.26451938 -13.86845847 0.46317785 -10.1875 -1.5 C-6.12765138 -2.136839 -3.77517685 -1.60794569 0 0 Z M-89.65625 4.46875 C-92.97552447 8.05356643 -92.67607851 10.78589807 -92.5 15.5 C-92.50257812 16.25925781 -92.50515625 17.01851562 -92.5078125 17.80078125 C-92.45051992 21.07218747 -92.21731632 23.58417982 -90.69140625 26.50390625 C-88.92547129 28.35046198 -88.92547129 28.35046198 -85.4375 28.4375 C-83.7359375 28.2209375 -83.7359375 28.2209375 -82 28 C-79.22175317 23.83262975 -79.63227734 20.39764939 -79.625 15.5 C-79.60050781 14.63246094 -79.57601562 13.76492187 -79.55078125 12.87109375 C-79.40488837 7.95369452 -79.40488837 7.95369452 -81.8359375 3.90625 C-85.10842177 2.53582337 -86.55791185 2.75555126 -89.65625 4.46875 Z M-11.19921875 5.03515625 C-13.46268634 8.76177643 -13.50253765 11.16415699 -13.4375 15.5 C-13.43621094 16.7890625 -13.43492187 18.078125 -13.43359375 19.40625 C-12.98351022 23.13667208 -12.36637535 25.10351285 -10 28 C-6.5 28.83333333 -6.5 28.83333333 -3 28 C0.30504812 23.98075758 0.37813045 20.5213357 0.3125 15.4375 C0.30863281 14.13683594 0.30476563 12.83617188 0.30078125 11.49609375 C-0.04806646 7.42843167 -0.04806646 7.42843167 -2 4 C-7.00899941 2.38232921 -7.00899941 2.38232921 -11.19921875 5.03515625 Z M-112 23 C-112 30.26 -112 37.52 -112 45 C-68.44 45 -24.88 45 20 45 C21.56524758 26.38513918 21.56524758 26.38513918 18 20 C14.57905758 17.71937172 13.31812778 17.78074993 9.3125 17.875 C8.31863281 17.89304687 7.32476562 17.91109375 6.30078125 17.9296875 C5.16189453 17.96449219 5.16189453 17.96449219 4 18 C3.87044922 19.01320313 3.87044922 19.01320313 3.73828125 20.046875 C2.59871703 27.28153956 2.59871703 27.28153956 -0.1875 30.625 C-3.80165135 32.39191844 -6.01999057 32.56857278 -10 32 C-12.8125 30.625 -12.8125 30.625 -15 28 C-15.99 23.05 -15.99 23.05 -17 18 C-36.14 18 -55.28 18 -75 18 C-75.66 21.3 -76.32 24.6 -77 28 C-79.806911 31.3682932 -81.20823007 31.9166558 -85.5625 32.375 C-90.90972222 31.79166667 -90.90972222 31.79166667 -93 30 C-94.88283044 26.16679364 -96.00675282 22.14007702 -97 18 C-98.56002428 17.8636872 -100.12357176 17.76740874 -101.6875 17.6875 C-102.55761719 17.62949219 -103.42773438 17.57148437 -104.32421875 17.51171875 C-107.83881491 17.89101191 -107.83881491 17.89101191 -112 23 Z M-112 50 C-112 59.57 -112 69.14 -112 79 C-107.235625 79.020625 -102.47125 79.04125 -97.5625 79.0625 C-96.0576001 79.071604 -94.5527002 79.08070801 -93.00219727 79.09008789 C-91.82713623 79.09258545 -90.6520752 79.09508301 -89.44140625 79.09765625 C-88.23170166 79.10289307 -87.02199707 79.10812988 -85.77563477 79.11352539 C-83.09187983 79.31775285 -83.09187983 79.31775285 -82 78 C-81.90016942 76.01242972 -81.86919247 74.0213248 -81.8671875 72.03125 C-81.86589844 70.82082031 -81.86460938 69.61039063 -81.86328125 68.36328125 C-81.86908203 66.45095703 -81.86908203 66.45095703 -81.875 64.5 C-81.87113281 63.22511719 -81.86726563 61.95023438 -81.86328125 60.63671875 C-81.86457031 59.42628906 -81.86585937 58.21585938 -81.8671875 56.96875 C-81.86831543 55.84919922 -81.86944336 54.72964844 -81.87060547 53.57617188 C-81.70783632 51.06858198 -81.70783632 51.06858198 -83 50 C-85.14558827 49.91224395 -87.29404421 49.89304781 -89.44140625 49.90234375 C-90.61646729 49.90484131 -91.79152832 49.90733887 -93.00219727 49.90991211 C-94.50709717 49.91901611 -96.01199707 49.92812012 -97.5625 49.9375 C-102.326875 49.958125 -107.09125 49.97875 -112 50 Z M-78 50 C-78 59.57 -78 69.14 -78 79 C-68.43 79 -58.86 79 -49 79 C-48.814375 74.400625 -48.62875 69.80125 -48.4375 65.0625 C-48.37618896 63.60980713 -48.31487793 62.15711426 -48.25170898 60.66040039 C-48.18705444 58.95871704 -48.18705444 58.95871704 -48.12109375 57.22265625 C-48.0739624 56.05484619 -48.02683105 54.88703613 -47.97827148 53.68383789 C-47.6856045 51.08060916 -47.6856045 51.08060916 -49 50 C-51.14558827 49.91224395 -53.29404421 49.89304781 -55.44140625 49.90234375 C-56.61646729 49.90484131 -57.79152832 49.90733887 -59.00219727 49.90991211 C-60.50709717 49.91901611 -62.01199707 49.92812012 -63.5625 49.9375 C-68.326875 49.958125 -73.09125 49.97875 -78 50 Z M-44 50 C-44 59.57 -44 69.14 -44 79 C-34.43 79 -24.86 79 -15 79 C-15 69.43 -15 59.86 -15 50 C-24.57 50 -34.14 50 -44 50 Z M-10 50 C-10 59.57 -10 69.14 -10 79 C-0.1 79 9.8 79 20 79 C20 69.43 20 59.86 20 50 C10.1 50 0.2 50 -10 50 Z M-112 84 C-112 93.57 -112 103.14 -112 113 C-102.43 113 -92.86 113 -83 113 C-83 103.43 -83 93.86 -83 84 C-92.57 84 -102.14 84 -112 84 Z M-78 84 C-78 93.57 -78 103.14 -78 113 C-68.43 113 -58.86 113 -49 113 C-49 103.43 -49 93.86 -49 84 C-58.57 84 -68.14 84 -78 84 Z M-44 84 C-44 93.57 -44 103.14 -44 113 C-34.43 113 -24.86 113 -15 113 C-15 103.43 -15 93.86 -15 84 C-24.57 84 -34.14 84 -44 84 Z M-10 84 C-10 93.57 -10 103.14 -10 113 C-0.1 113 9.8 113 20 113 C20 103.43 20 93.86 20 84 C10.1 84 0.2 84 -10 84 Z M-112 118 C-112.0825 121.691875 -112.165 125.38375 -112.25 129.1875 C-112.28641602 130.3427417 -112.32283203 131.4979834 -112.36035156 132.68823242 C-112.44335608 138.70394869 -112.44335608 138.70394869 -110.171875 144.17578125 C-106.81805753 146.99274665 -104.11722332 147.12206487 -99.89453125 147.09765625 C-99.00870361 147.09515869 -98.12287598 147.09266113 -97.21020508 147.09008789 C-96.0889624 147.08098389 -94.96771973 147.07187988 -93.8125 147.0625 C-90.244375 147.041875 -86.67625 147.02125 -83 147 C-83 137.43 -83 127.86 -83 118 C-92.57 118 -102.14 118 -112 118 Z M-78 118 C-78.020625 122.599375 -78.04125 127.19875 -78.0625 131.9375 C-78.071604 133.39019287 -78.08070801 134.84288574 -78.09008789 136.33959961 C-78.09258545 137.47405518 -78.09508301 138.60851074 -78.09765625 139.77734375 C-78.10289307 140.94515381 -78.10812988 142.11296387 -78.11352539 143.31616211 C-78.30661495 145.91891551 -78.30661495 145.91891551 -77 147 C-74.92737924 147.08767112 -72.85179706 147.10695873 -70.77734375 147.09765625 C-68.88725586 147.09282227 -68.88725586 147.09282227 -66.95898438 147.08789062 C-65.61848891 147.07953403 -64.27799412 147.07106907 -62.9375 147.0625 C-61.59310058 147.0574866 -60.2486994 147.05292342 -58.90429688 147.04882812 C-55.60282059 147.03699488 -52.30143197 147.02050971 -49 147 C-48.10445096 142.83974339 -47.86622492 139.01469012 -47.875 134.75 C-47.87242187 133.50734375 -47.86984375 132.2646875 -47.8671875 130.984375 C-48.01192597 126.64222096 -48.52022298 122.31799316 -49 118 C-58.57 118 -68.14 118 -78 118 Z M-44 118 C-44.020625 122.599375 -44.04125 127.19875 -44.0625 131.9375 C-44.071604 133.39019287 -44.08070801 134.84288574 -44.09008789 136.33959961 C-44.09258545 137.47405518 -44.09508301 138.60851074 -44.09765625 139.77734375 C-44.10289307 140.94515381 -44.10812988 142.11296387 -44.11352539 143.31616211 C-44.30661495 145.91891551 -44.30661495 145.91891551 -43 147 C-40.92737924 147.08767112 -38.85179706 147.10695873 -36.77734375 147.09765625 C-35.64288818 147.09515869 -34.50843262 147.09266113 -33.33959961 147.09008789 C-31.88690674 147.08098389 -30.43421387 147.07187988 -28.9375 147.0625 C-24.338125 147.041875 -19.73875 147.02125 -15 147 C-15 137.43 -15 127.86 -15 118 C-24.57 118 -34.14 118 -44 118 Z M-10 118 C-10 127.57 -10 137.14 -10 147 C-6.32875 147.0825 -2.6575 147.165 1.125 147.25 C2.2711377 147.28641602 3.41727539 147.32283203 4.59814453 147.36035156 C10.70974494 147.42679365 14.40118851 147.18073772 19 143 C20.27861615 140.44276771 20.11336609 138.63262898 20.09765625 135.7734375 C20.09515869 134.84450684 20.09266113 133.91557617 20.09008789 132.95849609 C20.08098389 131.77594238 20.07187988 130.59338867 20.0625 129.375 C20.0315625 123.744375 20.0315625 123.744375 20 118 C10.1 118 0.2 118 -10 118 Z " fill="#BCBEBD" transform="translate(205,78)"/>
<path d="M0 0 C3.40858568 0.48375124 5.61160902 1.95464577 8.375 3.9375 C14.72088582 8.24732799 20.34351729 9.99387035 28 9 C32.94582433 7.63842634 37.36823982 6.03848204 40.875 2.1875 C41.57625 1.465625 42.2775 0.74375 43 0 C45.1328125 0.36328125 45.1328125 0.36328125 47 1 C48.15842759 22.49526741 42.03819834 44.64385841 33 64 C32.51144531 65.08023438 32.02289063 66.16046875 31.51953125 67.2734375 C26.55028567 77.77849347 20.31395255 87.97520877 12.60546875 96.71484375 C10.7642482 98.81629675 10.7642482 98.81629675 11.171875 101.046875 C11.58179688 102.01367188 11.58179688 102.01367188 12 103 C13.74600578 108.6638724 14.54059168 112.71985704 12.0625 118.2734375 C10.06584025 121.51800959 7.34418262 123.32790869 4 125 C1.828125 125.203125 1.828125 125.203125 -0.75 125.25 C-1.59046875 125.27578125 -2.4309375 125.3015625 -3.296875 125.328125 C-6.65683132 124.92026903 -9.06111579 123.63271345 -12 122 C-13.2375 122.92619141 -13.2375 122.92619141 -14.5 123.87109375 C-41.41205554 143.72826433 -74.05508647 157.47349303 -108 156 C-108.33 155.01 -108.66 154.02 -109 153 C-107.63671875 150.9140625 -107.63671875 150.9140625 -105.6875 148.625 C-100.41021654 142.39502237 -99.49946099 137.44061386 -99.609375 129.37109375 C-100.2493164 123.84839947 -102.38630209 118.20659823 -106.73046875 114.5390625 C-107.35888672 113.77722656 -107.35888672 113.77722656 -108 113 C-107.6875 110.3125 -107.6875 110.3125 -107 108 C-105.741875 107.84144531 -104.48375 107.68289063 -103.1875 107.51953125 C-72.54453895 103.44082671 -44.29879021 90.68441011 -24.8125 65.8125 C-10.87755779 47.25846984 -2.81848776 25.95246631 -1.2109375 2.7578125 C-1 1 -1 1 0 0 Z M4 8 C3.67 11.63 3.34 15.26 3 19 C2.34 19 1.68 19 1 19 C0.76925781 20.00417969 0.53851563 21.00835937 0.30078125 22.04296875 C-1.59783841 30.07976752 -3.81228308 37.6751674 -6.94921875 45.328125 C-7.82545648 47.55617929 -8.49424954 49.6657671 -9 52 C-9.66 52 -10.32 52 -11 52 C-12.04468964 53.69038702 -13.00815224 55.43105545 -13.9375 57.1875 C-18.12764723 64.58136396 -23.31610697 70.71126121 -29 77 C-29.65742188 77.74121094 -30.31484375 78.48242188 -30.9921875 79.24609375 C-38.71160571 87.47903549 -48.68070954 94.4595122 -59 99 C-59 99.66 -59 100.32 -59 101 C-59.825 101.0825 -60.65 101.165 -61.5 101.25 C-64.46042288 101.88437633 -66.06306091 102.47075723 -68.625 103.875 C-72.97337912 106.17855593 -77.40403298 107.24259658 -82.1796875 108.34375 C-84.3702286 108.8534604 -86.53632422 109.46870908 -88.6875 110.125 C-92.77040306 111.20350269 -96.80098105 111.63817977 -101 112 C-100.00718233 113.99899163 -99.0052131 115.99010495 -97.96484375 117.96484375 C-94.53274842 124.55498877 -92.6700108 130.74424956 -94.56640625 138.23828125 C-95.99995418 142.70404574 -97.77224094 146.86273318 -100 151 C-72.89400188 150.42770445 -47.31649669 140.37028268 -24.796875 125.77734375 C-22 124 -22 124 -19.640625 122.87890625 C-17.35406958 121.84252435 -17.35406958 121.84252435 -15 119 C-14.65554453 115.38103746 -14.75023426 111.99713962 -15.046875 108.375 C-14.99315176 104.50692648 -14.4215107 102.98032086 -12 100 C-9.02894866 97.5770564 -7.62685795 96.97501653 -3.765625 97.12890625 C-2.60546875 97.27199219 -1.4453125 97.41507812 -0.25 97.5625 C4.08802681 97.63939933 6.18643525 97.65696883 9.59765625 94.90234375 C12.01387157 91.73612155 14.05331998 88.46377279 16 85 C16.76546467 83.71006856 17.53242532 82.42102383 18.30078125 81.1328125 C20.27117191 77.77452043 22.13320713 74.3678539 23.9609375 70.93017578 C24.90057251 69.18469778 25.88528095 67.46366868 26.875 65.74609375 C35.94388573 49.24800922 41.62839193 27.851758 41 9 C40.27296875 9.3609375 39.5459375 9.721875 38.796875 10.09375 C31.43709517 13.49057146 25.10426995 15.49476497 17 14 C12.47997831 12.31892012 8.23747166 10.29643625 4 8 Z " fill="#BABCBD" transform="translate(270,162)"/>
<path d="M0 0 C1.134375 0.00902344 2.26875 0.01804688 3.4375 0.02734375 C4.283125 0.03894531 5.12875 0.05054687 6 0.0625 C6.671875 1.828125 6.671875 1.828125 7 4.0625 C5.890625 5.921875 5.890625 5.921875 4.25 7.8125 C-0.4795967 13.74099447 -2.81012195 19.36634148 -2 27.0625 C-0.7070736 33.10693094 1.38353808 37.1098359 5.890625 41.359375 C7 43.0625 7 43.0625 6.671875 45.765625 C6.45015625 46.52359375 6.2284375 47.2815625 6 48.0625 C4.741875 48.22105469 3.48375 48.37960938 2.1875 48.54296875 C-28.53182696 52.63183791 -56.73828176 65.36466207 -76.25 90.3125 C-89.82209341 108.4277248 -97.59129677 128.89319391 -99.5 151.4375 C-99.665 152.63375 -99.83 153.83 -100 155.0625 C-100.99 155.7225 -101.98 156.3825 -103 157.0625 C-103.556875 156.59199219 -104.11375 156.12148437 -104.6875 155.63671875 C-111.59247781 150.00309665 -117.58422672 146.36504825 -126.703125 146.7109375 C-132.32600996 147.57158316 -137.07659188 150.07681219 -141.3125 153.8125 C-144 156.0625 -144 156.0625 -148 156.0625 C-149.77940441 124.32978794 -137.6617185 92.93215407 -120 67.0625 C-117.68859704 64.30101844 -117.68859704 64.30101844 -118.3125 61.5 C-118.91239838 59.08135389 -118.91239838 59.08135389 -120 57.0625 C-120.44326044 51.83202683 -120.28815025 48.07370727 -117.39453125 43.60546875 C-113.82233226 39.6530357 -109.49647607 38.21468401 -104.3125 37.6875 C-101.14668971 38.04589362 -98.90366542 38.82584522 -96 40.0625 C-94.94425781 39.13630859 -94.94425781 39.13630859 -93.8671875 38.19140625 C-86.32129176 31.71927374 -78.55330726 26.12701905 -70 21.0625 C-69.41379883 20.71445312 -68.82759766 20.36640625 -68.22363281 20.0078125 C-48.13182191 8.26828103 -23.44399789 -0.24420831 0 0 Z M-88 39.0625 C-89.010625 39.866875 -90.02125 40.67125 -91.0625 41.5 C-92.0215625 42.2734375 -92.0215625 42.2734375 -93 43.0625 C-92.84144531 43.61164062 -92.68289062 44.16078125 -92.51953125 44.7265625 C-91.23533509 50.5006174 -91.12429955 56.17637595 -93.625 61.5625 C-97.32249692 65.45460202 -100.25480352 66.94214162 -105.625 67.3125 C-108.28273676 67.11563061 -110.45798126 66.75073215 -113 66.0625 C-122.90105664 76.21742989 -128.87188508 90.0254265 -134 103.0625 C-134.45246094 104.1453125 -134.90492188 105.228125 -135.37109375 106.34375 C-140.35639832 119.00671947 -142.2586056 132.49251164 -142 146.0625 C-139.76681745 145.54032033 -137.85806963 144.99638183 -135.76953125 144.0234375 C-132.08136685 142.7437641 -128.54738014 142.6803255 -124.6875 142.6875 C-123.93001465 142.68693604 -123.1725293 142.68637207 -122.39208984 142.68579102 C-116.61670457 142.79980348 -112.88052262 143.84135507 -108 147.0625 C-107.01 147.3925 -106.02 147.7225 -105 148.0625 C-104.86722656 147.28003906 -104.73445313 146.49757812 -104.59765625 145.69140625 C-104.42105469 144.67949219 -104.24445313 143.66757813 -104.0625 142.625 C-103.88847656 141.61566406 -103.71445313 140.60632813 -103.53515625 139.56640625 C-103 137.0625 -103 137.0625 -102 136.0625 C-101.79857261 134.60602502 -101.61489714 133.14709673 -101.4375 131.6875 C-96.86424219 105.82841724 -78.01109975 80.79871778 -57.0625 65.8125 C-54.7312008 64.19308642 -52.37494696 62.6170605 -50 61.0625 C-48.51693359 60.08796875 -48.51693359 60.08796875 -47.00390625 59.09375 C-32.79535739 50.30257187 -17.15334172 46.57307164 -1 43.0625 C-1.33 41.7425 -1.66 40.4225 -2 39.0625 C-2.66 39.0625 -3.32 39.0625 -4 39.0625 C-7.03425662 28.22586921 -8.14356263 20.69427533 -4 10.0625 C-3.608125 9.051875 -3.21625 8.04125 -2.8125 7 C-2.544375 6.360625 -2.27625 5.72125 -2 5.0625 C-33.55635372 4.49490164 -64.03945558 19.74736725 -88 39.0625 Z " fill="#BABCBC" transform="translate(149,0.9375)"/>
<path d="M0 0 C0.89432739 -0.00630432 1.78865479 -0.01260864 2.71008301 -0.019104 C4.16166809 -0.01303131 4.16166809 -0.01303131 5.64257812 -0.00683594 C6.6338269 -0.00874939 7.62507568 -0.01066284 8.6463623 -0.01263428 C10.7445501 -0.01399679 12.84274631 -0.01029576 14.94091797 -0.00195312 C18.16067358 0.00874535 21.37987121 -0.0018463 24.59960938 -0.01464844 C26.63476686 -0.01332685 28.669924 -0.01076449 30.70507812 -0.00683594 C31.67280151 -0.0108844 32.6405249 -0.01493286 33.63757324 -0.019104 C34.53190063 -0.01279968 35.42622803 -0.00649536 36.34765625 0 C37.13660278 0.00159119 37.92554932 0.00318237 38.73840332 0.00482178 C40.67382812 0.25878906 40.67382812 0.25878906 42.67382812 2.25878906 C43.08105469 4.12792969 43.08105469 4.12792969 43.31445312 6.41503906 C43.41193848 7.26356445 43.50942383 8.11208984 43.60986328 8.98632812 C43.71347168 9.90124023 43.81708008 10.81615234 43.92382812 11.75878906 C47.56362029 39.68453391 61.34581224 66.26991459 83.81835938 83.74707031 C102.0084295 97.42469373 122.18733208 105.66906384 144.98632812 107.82128906 C148.67382813 108.25878906 148.67382813 108.25878906 150.67382812 110.25878906 C150.92106628 112.20094299 150.92106628 112.20094299 150.91674805 114.60083008 C150.91982468 115.49838516 150.92290131 116.39594025 150.92607117 117.32069397 C150.91529289 118.77698463 150.91529289 118.77698463 150.90429688 120.26269531 C150.90383865 121.25631577 150.90338043 122.24993622 150.90290833 123.27366638 C150.89988422 125.3760599 150.89199322 127.47845115 150.87963867 129.58081055 C150.86138377 132.81144076 150.85912893 136.04178455 150.859375 139.27246094 C150.85445993 141.31087489 150.84863165 143.34928689 150.84179688 145.38769531 C150.84068405 146.36057999 150.83957123 147.33346466 150.83842468 148.33583069 C150.83204483 149.23023361 150.82566498 150.12463654 150.8190918 151.04614258 C150.81528 151.83730972 150.8114682 152.62847687 150.80754089 153.44361877 C150.67382812 155.25878906 150.67382812 155.25878906 149.67382812 156.25878906 C115.32753906 159.0192327 78.6262857 142.72398301 52.67382812 121.25878906 C49.25255656 118.34547922 45.94063556 115.34381016 42.67382812 112.25878906 C41.87589844 111.5253125 41.07796875 110.79183594 40.25585938 110.03613281 C11.23185407 82.39642029 -2.99266298 43.86949983 -6.40820312 4.66503906 C-6.25602198 0.20105885 -3.84300198 0.00775076 0 0 Z M-1.32617188 4.25878906 C1.12344092 43.32600759 15.86958188 77.56942813 43.20214844 105.73583984 C44.60235901 107.18483015 45.97865492 108.65681777 47.35351562 110.12988281 C71.93933514 135.84650412 108.56259954 149.54123706 143.67382812 152.25878906 C144.33382812 151.92878906 144.99382812 151.59878906 145.67382812 151.25878906 C145.67382812 138.71878906 145.67382812 126.17878906 145.67382812 113.25878906 C139.73382813 112.26878906 133.79382813 111.27878906 127.67382812 110.25878906 C124.12705407 109.26647832 120.83805447 108.2944087 117.42382812 107.00878906 C116.1787146 106.55427368 116.1787146 106.55427368 114.90844727 106.09057617 C98.54968791 99.97401504 85.37224915 91.21281989 72.67382812 79.25878906 C72.07054688 78.71996094 71.46726562 78.18113281 70.84570312 77.62597656 C50.59612774 58.79576393 41.4446632 32.04352817 38.67382812 5.25878906 C37.47391822 3.8305292 37.47391822 3.8305292 33.98022461 4.14526367 C32.3351152 4.14542283 30.69000081 4.15111918 29.04492188 4.16113281 C28.18069107 4.16254776 27.31646027 4.16396271 26.42604065 4.16542053 C23.6544352 4.17103667 20.88290932 4.18359187 18.11132812 4.19628906 C16.23698033 4.20130198 14.36263127 4.20586525 12.48828125 4.20996094 C7.88343269 4.22101135 3.27864392 4.23828677 -1.32617188 4.25878906 Z " fill="#BDBEBF" transform="translate(6.326171875,161.7412109375)"/>
<path d="M0 0 C33.94853846 0.36940738 68.28719293 14.98738433 93.5625 37.25 C94.43648438 38.01441406 95.31046875 38.77882812 96.2109375 39.56640625 C98.68943283 41.76579174 101.13314563 43.99656439 103.5625 46.25 C104.16578125 46.79914062 104.7690625 47.34828125 105.390625 47.9140625 C131.41736539 72.60297979 148.17524473 111.80645336 149.69628906 147.37890625 C149.74961806 152.71180556 149.74961806 152.71180556 149.5625 155.25 C147.98949672 156.82300328 146.42565955 156.37725504 144.2421875 156.37939453 C143.32453613 156.38254669 142.40688477 156.38569885 141.46142578 156.38894653 C140.46353027 156.3869223 139.46563477 156.38489807 138.4375 156.3828125 C137.42026855 156.38376923 136.40303711 156.38472595 135.35498047 156.38571167 C133.19954364 156.38639361 131.04410478 156.38453835 128.88867188 156.38037109 C125.57677629 156.37502305 122.26501633 156.38031563 118.953125 156.38671875 C116.86458303 156.38605797 114.77604115 156.38477681 112.6875 156.3828125 C111.19065674 156.38584885 111.19065674 156.38584885 109.66357422 156.38894653 C108.74592285 156.38579437 107.82827148 156.38264221 106.8828125 156.37939453 C106.07086426 156.37859894 105.25891602 156.37780334 104.42236328 156.37698364 C102.5625 156.25 102.5625 156.25 101.5625 155.25 C101.28489716 153.08896866 101.0124484 150.92715824 100.76513672 148.76245117 C97.34524363 119.92780861 84.66989696 92.91307433 62.03125 74.15234375 C43.05541973 59.28284234 22.420715 51.48890168 -1.484375 48.7578125 C-5.4375 48.25 -5.4375 48.25 -6.4375 47.25 C-6.53563987 45.81259647 -6.5654828 44.37043673 -6.56689453 42.9296875 C-6.57004669 42.01203613 -6.57319885 41.09438477 -6.57644653 40.14892578 C-6.5744223 39.15103027 -6.57239807 38.15313477 -6.5703125 37.125 C-6.57126923 36.10776855 -6.57222595 35.09053711 -6.57321167 34.04248047 C-6.57389361 31.88704364 -6.57203835 29.73160478 -6.56787109 27.57617188 C-6.56252305 24.26427629 -6.56781563 20.95251633 -6.57421875 17.640625 C-6.57355797 15.55208303 -6.57227681 13.46354115 -6.5703125 11.375 C-6.57233673 10.37710449 -6.57436096 9.37920898 -6.57644653 8.35107422 C-6.57329437 7.43342285 -6.57014221 6.51577148 -6.56689453 5.5703125 C-6.56609894 4.75836426 -6.56530334 3.94641602 -6.56448364 3.10986328 C-6.29390072 -0.85322388 -3.34150202 0.05005996 0 0 Z M-2.4375 4.25 C-2.4375 17.45 -2.4375 30.65 -2.4375 44.25 C1.213125 44.806875 4.86375 45.36375 8.625 45.9375 C40.04340878 51.09051591 66.12657242 67.10152888 85.125 92.7578125 C95.25597608 106.92988652 95.25597608 106.92988652 96.5625 114.25 C97.2225 114.25 97.8825 114.25 98.5625 114.25 C98.81 115.425625 99.0575 116.60125 99.3125 117.8125 C100.5128883 123.27426675 102.03288316 128.63806578 103.5625 134.015625 C104.90273742 139.69069284 105.67582757 145.48662917 106.5625 151.25 C119.1025 151.25 131.6425 151.25 144.5625 151.25 C142.4791126 126.42296683 136.50974076 104.72342214 125.5625 82.25 C124.9025 82.25 124.2425 82.25 123.5625 82.25 C123.2325 80.6 122.9025 78.95 122.5625 77.25 C121.9025 77.25 121.2425 77.25 120.5625 77.25 C120.48 76.528125 120.3975 75.80625 120.3125 75.0625 C119.39748685 71.63120069 117.83565202 69.96816061 115.5625 67.25 C114.88832031 66.41082031 114.21414063 65.57164063 113.51953125 64.70703125 C105.21836566 54.47043908 97.01577141 45.33272079 86.5625 37.25 C85.66015625 36.52039062 84.7578125 35.79078125 83.828125 35.0390625 C66.56927673 21.45129522 46.50457656 12.92302551 25.375 7.3125 C24.65328613 7.11293701 23.93157227 6.91337402 23.18798828 6.70776367 C14.57225514 4.59295852 6.76077728 4.7610154 -2.4375 4.25 Z " fill="#BBBCBE" transform="translate(167.4375,0.75)"/>
<path d="M0 0 C0.33 0 0.66 0 1 0 C1 6.93 1 13.86 1 21 C44.56 21 88.12 21 133 21 C133 14.07 133 7.14 133 0 C133.33 0 133.66 0 134 0 C134.02907084 3.58331625 134.04682263 7.16660208 134.0625 10.75 C134.07087891 11.76578125 134.07925781 12.7815625 134.08789062 13.828125 C134.09111328 14.8078125 134.09433594 15.7875 134.09765625 16.796875 C134.10289307 17.69760742 134.10812988 18.59833984 134.11352539 19.52636719 C134 22 134 22 133 26 C121.78 26 110.56 26 99 26 C99 35.9 99 45.8 99 56 C89.1 56 79.2 56 69 56 C69 55.67 69 55.34 69 55 C78.57 55 88.14 55 98 55 C98 45.43 98 35.86 98 26 C95.94007813 26.0721875 93.88015625 26.144375 91.7578125 26.21875 C61.45015026 27.24345196 31.30273399 27.22435289 1 26 C1 35.57 1 45.14 1 55 C0.67 55 0.34 55 0 55 C0 36.85 0 18.7 0 0 Z " fill="#C5B9D9" transform="translate(92,102)"/>
<path d="M0 0 C3.61178707 0.79007842 6.41474151 2.85224151 9 5.4375 C9.43121285 8.81944081 9.46272047 12.05856445 9 15.4375 C6.43839394 18.71955776 3.97316634 19.63755625 0 20.375 C-3.83158721 20.68586462 -5.9785813 19.92572716 -9 17.4375 C-11.68689048 13.40716428 -11.78752505 10.17094002 -11 5.4375 C-8.06764718 0.94733475 -5.41617128 -0.3282528 0 0 Z " fill="#EAEAEB" transform="translate(45,43.5625)"/>
<path d="M0 0 C2.8100346 1.79363911 4.50940468 3.01880935 6 6 C6.53201964 10.43931139 6.47695616 13.983876 4.5625 18.0625 C1.31800706 20.5156532 -0.7448751 20.6756657 -4.73828125 20.3984375 C-8.57270245 19.72294361 -10.36309162 18.90736052 -13 16 C-14.13345965 10.66124076 -13.91589851 6.45971324 -11 1.8125 C-7.17140373 -0.50061025 -4.36617599 -0.97908189 0 0 Z " fill="#E9E9E9" transform="translate(272,262)"/>
<path d="M0 0 C0.33 0 0.66 0 1 0 C2.10339665 4.4135866 2.03705271 8.47956956 2 13 C3.20124512 12.99476318 4.40249023 12.98952637 5.64013672 12.98413086 C10.08674376 12.96606347 14.53334753 12.9545616 18.97998047 12.94506836 C20.90641831 12.94003213 22.83285231 12.93320288 24.75927734 12.92456055 C27.52442368 12.91246392 30.28951958 12.90676467 33.0546875 12.90234375 C34.3516304 12.89460182 34.3516304 12.89460182 35.67477417 12.88670349 C41.77225659 12.88612829 41.77225659 12.88612829 44 14 C44 15.32 44 16.64 44 18 C28.82 18 13.64 18 -2 18 C-2 16.68 -2 15.36 -2 14 C-1.01 14 -0.02 14 1 14 C0.67 9.38 0.34 4.76 0 0 Z " fill="#BFB0D4" transform="translate(272,139)"/>
<path d="M0 0 C0.66 0.33 1.32 0.66 2 1 C2 15.85 2 30.7 2 46 C1.01 46.495 1.01 46.495 0 47 C-2.95200285 44.1063271 -4.27885318 42.03035232 -4.36230469 37.9440918 C-4.32001499 36.3617592 -4.2553239 34.77991516 -4.171875 33.19921875 C-4.14401917 32.36284378 -4.11616333 31.52646881 -4.08746338 30.66474915 C-3.99440729 28.00452307 -3.87262371 25.34651091 -3.75 22.6875 C-3.68169291 20.87962811 -3.61526544 19.07168416 -3.55078125 17.26367188 C-3.38895274 12.841317 -3.20135935 8.42072419 -3 4 C-7.29 3.67 -11.58 3.34 -16 3 C-16 2.67 -16 2.34 -16 2 C-14.51886719 2.03480469 -14.51886719 2.03480469 -13.0078125 2.0703125 C-11.08582031 2.09738281 -11.08582031 2.09738281 -9.125 2.125 C-7.84882813 2.14820313 -6.57265625 2.17140625 -5.2578125 2.1953125 C-1.91406662 2.35641524 -1.91406662 2.35641524 0 0 Z " fill="#C4B6D8" transform="translate(155,271)"/>
<path d="M0 0 C0.99 0 1.98 0 3 0 C3.33 15.18 3.66 30.36 4 46 C1.525 46.495 1.525 46.495 -1 47 C-1.02527002 40.46721214 -1.04283292 33.93443679 -1.05493164 27.40161133 C-1.05997317 25.17732268 -1.06680623 22.95303737 -1.07543945 20.72875977 C-1.08751298 17.53921691 -1.09322996 14.34971771 -1.09765625 11.16015625 C-1.10281754 10.15912369 -1.10797882 9.15809113 -1.11329651 8.12672424 C-1.11337204 7.20584518 -1.11344757 6.28496613 -1.11352539 5.33618164 C-1.115746 4.52121719 -1.11796661 3.70625275 -1.12025452 2.86659241 C-1 1 -1 1 0 0 Z " fill="#BEAED4" transform="translate(162,1)"/>
<path d="M0 0 C14.85 0 29.7 0 45 0 C45 1.32 45 2.64 45 4 C42.19724228 4.93425257 40.6811461 5.09949044 37.80395508 5.02172852 C36.96331009 5.00163223 36.1226651 4.98153595 35.25654602 4.96083069 C34.35333115 4.93379562 33.45011627 4.90676056 32.51953125 4.87890625 C31.59154221 4.85529526 30.66355316 4.83168427 29.70744324 4.80735779 C26.74230505 4.73075991 23.77743058 4.64671871 20.8125 4.5625 C18.8027473 4.50927545 16.79298171 4.45653507 14.78320312 4.40429688 C9.85530162 4.27514994 4.92762377 4.13932693 0 4 C0 2.68 0 1.36 0 0 Z " fill="#BFAED7" transform="translate(2,162)"/>
</svg>
